PathFileType	4	(X/Y/Z)	/Users/itak/Documents/Research/Walk-IL/dataset/trc/00360_00011.trc
DataRate	CameraRate	NumFrames	NumMarkers	Units	OrigDataRate	OrigDataStartFrame	OrigNumFrames
100.000000	100.000000	4	56	mm	100.000000	102	409
Frame#	Time	RPSI			LPSI			L3			STRN			T10			C7			CLAV			RBAK			LBAK			LSHO			LUPA			LAEL			LAOL			LWTS			LWPS			LFRA			LIFD			LHPS			LHTS			RSHO			RUPA			RAEL			RAOL			RWTS			RWPS			RFRA			RIFD			RHTS			RHPS			RBHD			LFHD			RFHD			LBHD			LHIP			RHIP			RASI			LASI			LKNE			LTHI			LANK			LTIP			LTOE			LMT1			LMT5			LHEE			RKNE			RTHI			RTIP			RTOE			RMT1			RMT5			RANK			RHEE			*53			*54			*55			
		X1	Y1	Z1	X2	Y2	Z2	X3	Y3	Z3	X4	Y4	Z4	X5	Y5	Z5	X6	Y6	Z6	X7	Y7	Z7	X8	Y8	Z8	X9	Y9	Z9	X10	Y10	Z10	X11	Y11	Z11	X12	Y12	Z12	X13	Y13	Z13	X14	Y14	Z14	X15	Y15	Z15	X16	Y16	Z16	X17	Y17	Z17	X18	Y18	Z18	X19	Y19	Z19	X20	Y20	Z20	X21	Y21	Z21	X22	Y22	Z22	X23	Y23	Z23	X24	Y24	Z24	X25	Y25	Z25	X26	Y26	Z26	X27	Y27	Z27	X28	Y28	Z28	X29	Y29	Z29	X30	Y30	Z30	X31	Y31	Z31	X32	Y32	Z32	X33	Y33	Z33	X34	Y34	Z34	X35	Y35	Z35	X36	Y36	Z36	X37	Y37	Z37	X38	Y38	Z38	X39	Y39	Z39	X40	Y40	Z40	X41	Y41	Z41	X42	Y42	Z42	X43	Y43	Z43	X44	Y44	Z44	X45	Y45	Z45	X46	Y46	Z46	X47	Y47	Z47	X48	Y48	Z48	X49	Y49	Z49	X50	Y50	Z50	X51	Y51	Z51	X52	Y52	Z52	X53	Y53	Z53	X54	Y54	Z54	X55	Y55	Z55	X56	Y56	Z56	

103	1.02	41.30764770507812	969.2664794921875	647.8922119140625	-56.79858779907227	962.2077026367188	565.1466674804688	-0.5498780012130737	1026.777709960938	612.7485961914062	128.8249664306641	1208.874877929688	411.5813598632812	-5.350222587585449	1146.31005859375	615.9385986328125	7.457056999206543	1392.061645507812	561.9930419921875	98.87545776367188	1335.026489257812	439.1654968261719	38.07834243774414	1256.158569335938	646.1834716796875	-82.4544677734375	1355.922119140625	517.49267578125	-82.34174346923828	1370.4453125	415.92333984375	-167.0117797851562	1266.137939453125	415.8235778808594	-222.0723114013672	1072.727172851562	435.3228149414062	-188.9111022949219	1063.508056640625	513.30517578125	-226.4594879150391	810.1510620117188	403.6891784667969	-290.6022644042969	823.8740844726562	426.9682312011719	-254.8958740234375	972.5994262695312	437.8103332519531	-278.8550415039062	658.45849609375	427.9198303222656	-307.2200927734375	759.15625	444.6737976074219	-264.1927795410156	739.1597900390625	402.9479370117188	170.5447692871094	1386.57275390625	608.6177978515625	221.4541473388672	1329.444213867188	654.4915771484375	340.3445129394531	1089.0556640625	675.5574951171875	256.608154296875	1049.6162109375	654.2905883789062	450.4739990234375	892.2718505859375	551.7333374023438	482.6821594238281	885.7191772460938	621.3724365234375	385.0481262207031	1033.982055664062	660.4535522460938	529.1337890625	736.8287963867188	545.0634765625	514.8038940429688	809.39990234375	536.9443359375	520.5946044921875	812.5935668945312	605.9673461914062	123.7397232055664	1604.7431640625	539.6494140625	87.18116760253906	1586.696533203125	334.4231872558594	174.3780670166016	1590.472412109375	385.2115478515625	-12.70345211029053	1598.767333984375	491.3368530273438	-76.54296875	908.598388671875	429.3677062988281	175.9668426513672	916.436767578125	662.7621459960938	215.6077575683594	942.0143432617188	556.7761840820312	49.02118682861328	937.3567504882812	385.0747680664062	98.0467529296875	483.1207275390625	298.6085815429688	46.6236457824707	613.0848388671875	318.4238586425781	70.72822570800781	78.22917938232422	462.5241088867188	77.91582489013672	264.9709167480469	370.8134765625	219.5503540039062	55.35660171508789	315.0838928222656	222.9405212402344	50.59135055541992	395.3900756835938	118.5402755737305	55.55452728271484	351.0082702636719	114.1470642089844	88.13665771484375	523.8328247070312	171.4378051757812	454.5851745605469	651.4004516601562	223.0246124267578	710.254150390625	622.3965454101562	157.9019012451172	334.336669921875	658.5164184570312	184.2454376220703	39.84847640991211	589.8121337890625	114.1238174438477	37.9818000793457	587.5984497070312	147.6186370849609	34.89115905761719	702.7614135742188	58.50691986083984	54.16342544555664	745.21923828125	-9.72923755645752	61.4981575012207	733.6788940429688	nan	nan	nan	nan	nan	nan	nan	nan	nan	
104	1.03	48.19348526000977	968.4736938476562	642.1075439453125	-49.99434280395508	961.619140625	559.5625610351562	6.51506519317627	1025.892822265625	607.5718383789062	134.6701965332031	1207.982299804688	405.2639770507812	2.128247261047363	1145.414428710938	611.3566284179688	14.74059581756592	1391.075805664062	556.93115234375	104.8796157836914	1334.09619140625	433.1522827148438	46.16809844970703	1255.197387695312	640.8194580078125	-75.56809997558594	1355.074462890625	513.3991088867188	-76.52686309814453	1369.623901367188	411.9105224609375	-161.6080780029297	1265.89892578125	413.4774169921875	-217.5769195556641	1072.97314453125	434.8613891601562	-182.8694915771484	1063.779418945312	512.1915893554688	-224.2632293701172	810.6568603515625	403.3966369628906	-287.8254699707031	824.6480102539062	428.141357421875	-250.9819641113281	973.1066284179688	438.2249450683594	-277.1665649414062	659.1919555664062	427.8500061035156	-304.3265686035156	759.9285888671875	445.9226684570312	-262.4481811523438	739.9762573242188	403.0471801757812	178.1831970214844	1385.69384765625	601.9453125	229.7078704833984	1328.609985351562	647.15478515625	351.0451965332031	1089.333129882812	665.8353271484375	267.6350402832031	1049.080078125	644.7714233398438	462.7432556152344	895.06640625	539.6800537109375	495.41845703125	888.2609252929688	609.0574951171875	396.279541015625	1034.892333984375	650.0216064453125	543.8109741210938	741.0014038085938	530.9232177734375	528.3297729492188	813.4498901367188	523.644775390625	534.3616333007812	815.968505859375	592.7073974609375	130.7314910888672	1603.831176757812	533.5209350585938	92.15615844726562	1585.872924804688	328.6130065917969	179.8385772705078	1589.637451171875	378.5287170410156	-6.182023525238037	1597.834106445312	486.5155639648438	-70.01836395263672	908.0709228515625	423.8925170898438	182.6898498535156	915.3170776367188	657.006103515625	222.3053131103516	940.8295288085938	550.8597412109375	55.55047607421875	936.6648559570312	379.3500061035156	103.1129379272461	481.1802978515625	295.221435546875	51.3500862121582	611.7877197265625	314.0142517089844	94.61302947998047	69.31074523925781	440.114990234375	91.94023895263672	260.0935668945312	357.5298461914062	239.1533508300781	58.79935836791992	287.2119140625	245.3383483886719	50.46044921875	367.05908203125	139.4720001220703	53.62910079956055	326.2416076660156	139.4091949462891	78.04636383056641	500.5409240722656	174.3451690673828	454.0113830566406	648.4967651367188	228.1591491699219	708.9049072265625	617.4210205078125	159.9165649414062	333.7749938964844	656.472412109375	184.3578186035156	39.81541061401367	589.8070678710938	114.1872406005859	37.90016937255859	587.4212036132812	147.6053009033203	35.04970550537109	702.5545043945312	58.51052856445312	54.95833206176758	744.7777099609375	-9.70246696472168	62.48342132568359	733.2701416015625	nan	nan	nan	nan	nan	nan	nan	nan	nan	
105	1.04	54.96182632446289	967.5609741210938	636.0862426757812	-43.26338958740234	960.8623046875	553.6640014648438	13.46070098876953	1024.84423828125	602.1276245117188	140.5012512207031	1206.975708007812	398.8610229492188	9.438296318054199	1144.357666015625	606.568603515625	21.87143707275391	1389.9423828125	551.7235107421875	110.8325271606445	1333.045776367188	427.0526123046875	54.06978225708008	1254.079345703125	635.2975463867188	-68.76877593994141	1354.065673828125	509.0919494628906	-70.74852752685547	1368.649658203125	407.6890258789062	-156.1136932373047	1265.415283203125	410.8667907714844	-212.7881164550781	1072.944580078125	434.0831298828125	-176.5102996826172	1063.773071289062	510.7530212402344	-221.6685333251953	810.84619140625	402.9494934082031	-284.612060546875	825.1298217773438	429.1480712890625	-246.6773986816406	973.3325805664062	438.3612365722656	-275.0526733398438	659.637451171875	427.8760681152344	-301.0513000488281	760.4383544921875	447.0581359863281	-260.2825927734375	740.472412109375	403.1204223632812	185.6489715576172	1384.66845703125	595.2269897460938	237.7562255859375	1327.613159179688	639.7681274414062	361.3150329589844	1089.390625	656.0719604492188	278.2308654785156	1048.402221679688	635.110107421875	474.5198669433594	897.6793212890625	527.58984375	507.5858764648438	890.5443115234375	596.736328125	407.045166015625	1035.563354492188	639.5758666992188	557.8536376953125	744.9890747070312	516.7208862304688	541.2860107421875	817.2976684570312	510.3281860351562	547.5074462890625	819.07861328125	579.4312133789062	137.5714416503906	1602.778686523438	527.3577880859375	97.08846282958984	1584.93701171875	322.7734375	185.2230072021484	1588.686767578125	371.8605041503906	0.2345451414585114	1596.771606445312	481.6066284179688	-63.4541015625	907.2713012695312	418.1172790527344	189.3085327148438	914.16064453125	651.1216430664062	228.9317932128906	939.5946655273438	544.8462524414062	62.12648773193359	935.760009765625	373.4028930664062	107.9944305419922	478.774658203125	292.1647033691406	55.87247085571289	609.8928833007812	309.9122009277344	117.9825210571289	61.48342132568359	417.0357360839844	105.5884323120117	255.5797424316406	344.112060546875	257.8577880859375	63.29728317260742	259.5888977050781	266.8203430175781	51.56914138793945	338.7435302734375	159.7268981933594	52.67259979248047	301.2729797363281	164.0804290771484	69.1717529296875	476.5380859375	177.2912445068359	453.4310302734375	645.4782104492188	233.2978515625	707.5294189453125	612.3863525390625	161.9787902832031	333.2332153320312	654.3502807617188	184.4842376708984	39.79160690307617	589.8031005859375	114.259635925293	37.82774353027344	587.2301025390625	147.5773468017578	35.22310638427734	702.3311157226562	58.50848770141602	55.78922271728516	744.2860717773438	-9.670374870300293	63.55234527587891	732.8084106445312	nan	nan	nan	nan	nan	nan	nan	nan	nan	
106	1.05	61.61169052124023	966.5347290039062	629.8219604492188	-36.60401153564453	959.9337158203125	547.4542236328125	20.29153633117676	1023.630920410156	596.3989868164062	146.3222503662109	1205.8564453125	392.3662719726562	16.58702659606934	1143.134643554688	601.545166015625	28.85682678222656	1388.659912109375	546.3660278320312	116.7403869628906	1331.875	420.8606262207031	61.78688049316406	1252.800903320312	629.6121826171875	-62.0582160949707	1352.890747070312	504.5671997070312	-65.00969696044922	1367.517700195312	403.2511901855469	-150.5352325439453	1264.680786132812	407.9792175292969	-207.7175750732422	1072.634521484375	432.9735412597656	-169.8540802001953	1063.482788085938	508.9753112792969	-218.6762542724609	810.7024536132812	402.3386840820312	-280.9648132324219	825.3037719726562	429.9703979492188	-241.9971160888672	973.2650756835938	438.1973571777344	-272.486083984375	659.7763671875	428.0085754394531	-297.396484375	760.67626953125	448.0690612792969	-257.6786193847656	740.6251831054688	403.1697082519531	192.9457244873047	1383.4951171875	588.4588012695312	245.6014709472656	1326.450561523438	632.3270874023438	371.1573791503906	1089.21826171875	646.2828369140625	288.3972473144531	1047.573852539062	625.3212280273438	485.8050231933594	900.0991821289062	515.4730834960938	519.1871948242188	892.5489501953125	584.4174194335938	417.3505554199219	1035.984252929688	629.1312866210938	571.2373657226562	748.763427734375	502.4695129394531	553.6602783203125	820.9153442382812	497.0068969726562	560.0252685546875	821.8936767578125	566.14306640625	144.263671875	1601.588623046875	521.1571044921875	101.9773483276367	1583.894653320312	316.9010620117188	190.5329437255859	1587.623779296875	365.2032470703125	6.544475078582764	1595.583251953125	476.6087646484375	-56.85773468017578	906.1807250976562	412.0418395996094	195.8274993896484	912.9760131835938	645.0944213867188	235.4927062988281	938.309326171875	538.7227783203125	68.74073791503906	934.6261596679688	367.2290649414062	112.8135528564453	475.9860229492188	289.2698669433594	60.25906753540039	607.42041015625	306.0565490722656	140.6434173583984	54.8686637878418	393.453857421875	118.8176193237305	251.5494842529297	330.6075439453125	275.6116943359375	68.87437438964844	232.4061737060547	287.2825317382812	53.95436096191406	310.66845703125	179.2035675048828	52.76824951171875	276.2611389160156	187.9518737792969	61.62295150756836	452.0310363769531	180.2914733886719	452.84912109375	642.3638305664062	238.4441833496094	706.1456909179688	607.3026123046875	164.0978698730469	332.7193603515625	652.1611938476562	184.6203918457031	39.77061462402344	589.8001708984375	114.3429183959961	37.7677001953125	587.0272827148438	147.5446929931641	35.41646575927734	702.09375	58.51264572143555	56.6612663269043	743.7570190429688	-9.620035171508789	64.71231079101562	732.3050537109375	nan	nan	nan	nan	nan	nan	nan	nan	nan	
